<?xml version="1.0" encoding="UTF-8"?>
<svg width="18px" height="27px" viewBox="0 0 18 27" version="1.1" xmlns="http://www.w3.org/2000/svg" xmlns:xlink="http://www.w3.org/1999/xlink">
    <!-- Generator: Sketch 48.2 (47327) - http://www.bohemiancoding.com/sketch -->
    <title>search-icon-ascii</title>
    <desc>Created with Sketch.</desc>
    <defs></defs>
    <g id="Desktop-HD-Copy-3" stroke="none" stroke-width="1" fill="none" fill-rule="evenodd" transform="translate(-945.000000, -199.000000)">
        <g id="Group-2" transform="translate(456.500000, 186.000000)" fill="#F1404B" fill-rule="nonzero">
            <g id="search-icon-ascii" transform="translate(498.423139, 26.532833) rotate(-330.000000) translate(-498.423139, -26.532833) translate(486.423139, 13.532833)">
                <g id="Laag_1_1_" transform="translate(0.000000, 1.281523)">
                    <path d="M2.80923331,2.72323638 C-0.614519788,6.07711697 -0.614519788,11.5522554 2.80923331,14.8774703 C5.94035795,17.9733601 10.8565162,18.2313509 14.338795,15.6801084 L20.1035759,21.3272407 C20.5717815,21.785891 21.3033526,21.785891 21.7715582,21.3272407 C22.2397637,20.8685903 22.2397637,20.1519492 21.7715582,19.6932989 L16.0067773,14.0748322 C18.6696964,10.7209516 18.4063308,5.8477918 15.2459433,2.75190202 C11.7929274,-0.601978567 6.23298642,-0.630644214 2.80923331,2.72323638 Z M14.0754294,13.8455071 C11.295459,16.5687434 6.75971766,16.5687434 3.9797472,13.8455071 C1.19977673,11.1222707 1.19977673,6.67909553 3.9797472,3.95585916 C6.75971766,1.23262278 11.295459,1.23262278 14.0754294,3.95585916 C16.8846627,6.65042989 16.8846627,11.1222707 14.0754294,13.8455071 Z" id="Shape"></path>
                </g>
            </g>
        </g>
    </g>
</svg>